<mxfile host="app.diagrams.net" modified="2024-06-17T16:29:57.765Z" agent="Mozilla/5.0 (Windows NT 10.0; Win64; x64) AppleWebKit/537.36 (KHTML, like Gecko) Chrome/125.0.0.0 Safari/537.36" etag="dzNaiTcUO26OD8p4sXP2" version="24.5.4" type="github">
  <diagram name="Page-1" id="T2OR4NboHE54OPZpV_E1">
    <mxGraphModel dx="976" dy="605" grid="1" gridSize="10" guides="1" tooltips="1" connect="1" arrows="1" fold="1" page="1" pageScale="1" pageWidth="827" pageHeight="1169" math="0" shadow="0">
      <root>
        <mxCell id="0" />
        <mxCell id="1" parent="0" />
      </root>
    </mxGraphModel>
  </diagram>
</mxfile>
